<?xml version="1.0" encoding="UTF-8"?>
<svg width="600" height="600" viewBox="0 0 600 600" xmlns="http://www.w3.org/2000/svg">
    <!-- Background -->
    <circle cx="300" cy="300" r="290" fill="#FAF7F2"/>
    
    <!-- Hills Background -->
    <path d="M50 350 Q300 250 550 350 L550 550 L50 550 Z" fill="#E8F4EA"/>
    <path d="M50 400 Q300 300 550 400 L550 550 L50 550 Z" fill="#D1E7D4"/>
    
    <!-- Couch -->
    <path d="M100 350 Q300 330 500 350 L500 450 L100 450 Z" fill="#5D4037"/>
    
    <!-- Dogs -->
    <g fill="#5D4037">
        <!-- Large Dog -->
        <path d="M200 250 Q220 200 240 250 L260 350 L180 350 Z"/>
        <circle cx="220" cy="230" r="30"/>
        <circle cx="225" cy="225" r="5" fill="white"/>
        
        <!-- Small Dog -->
        <path d="M320 280 Q335 250 350 280 L365 350 L305 350 Z"/>
        <circle cx="335" cy="270" r="20"/>
        <circle cx="338" cy="267" r="4" fill="white"/>
    </g>
    
    <!-- Text -->
    <path d="M150 100 Q300 80 450 100" fill="none" stroke="#5D4037" stroke-width="2"/>
    <text x="300" y="90" text-anchor="middle" font-family="serif" font-size="48" fill="#5D4037">BARKER'S</text>
    <text x="300" y="500" text-anchor="middle" font-family="serif" font-size="48" fill="white">CORNER</text>
</svg>
